<?xml version="1.0" encoding="utf-8"?>
<!-- Svg Vector Icons : http://www.onlinewebfonts.com/icon -->
<!DOCTYPE svg PUBLIC "-//W3C//DTD SVG 1.1//EN" "http://www.w3.org/Graphics/SVG/1.1/DTD/svg11.dtd">
<svg version="1.1" xmlns="http://www.w3.org/2000/svg" xmlns:xlink="http://www.w3.org/1999/xlink" x="0px" y="0px" viewBox="0 0 256 256" enable-background="new 0 0 256 256" xml:space="preserve">
<metadata> Svg Vector Icons : http://www.onlinewebfonts.com/icon </metadata>
<g> <path fill="#000000" d="M178.2,125.2l-66.8,69.3l-33.6-37c-3.1-3.4-8.4-3.7-11.8-0.6c-3.4,3.1-3.7,8.4-0.6,11.8l37.9,41.7 c1.7,1.8,3.9,2.7,6.2,2.7c0.7,0,1.4-0.1,2.1-0.3c0.5,0.1,1,0.1,1.5,0.1c2.2,0,4.4-0.9,6-2.6l71.1-73.8c3.2-3.3,3.1-8.6-0.2-11.8 C186.7,121.8,181.4,121.9,178.2,125.2L178.2,125.2z M228.6,43.9h-33.4V18.4c0-4.6-3.7-8.4-8.4-8.4c-4.6,0-8.4,3.7-8.4,8.4v25.4H77 V18.5c0-4.6-3.7-8.4-8.4-8.4c-4.6,0-8.4,3.7-8.4,8.4v25.3H27.4c-9.6,0-17.4,7.8-17.4,17.5v167.2c0,9.6,7.8,17.5,17.4,17.5h201.1 c9.6,0,17.4-7.8,17.4-17.5V61.3C246,51.7,238.2,43.9,228.6,43.9L228.6,43.9z M27.4,60.6h201.1c0.4,0,0.7,0.3,0.7,0.8v33H26.7v-33 C26.7,60.9,27,60.6,27.4,60.6L27.4,60.6z M228.6,229.2H27.4c-0.4,0-0.7-0.3-0.7-0.8V111.1h202.6v117.4 C229.3,228.9,229,229.2,228.6,229.2L228.6,229.2z"/></g>
</svg>