<?xml version="1.0" encoding="utf-8"?>
<!-- Svg Vector Icons : http://www.onlinewebfonts.com/icon -->
<!DOCTYPE svg PUBLIC "-//W3C//DTD SVG 1.1//EN" "http://www.w3.org/Graphics/SVG/1.1/DTD/svg11.dtd">
<svg version="1.1" xmlns="http://www.w3.org/2000/svg" xmlns:xlink="http://www.w3.org/1999/xlink" x="0px" y="0px" viewBox="0 0 256 256" enable-background="new 0 0 256 256" xml:space="preserve">
<metadata> Svg Vector Icons : http://www.onlinewebfonts.com/icon </metadata>
<g> <path fill="#000000" d="M189.6,118.7c-2.3,0-4.7,0.4-6.9,1.2c-2.5-8.7-10.5-15.1-20-15.1c-2.5,0-5,0.4-7.3,1.3 c-2.9-8.1-10.6-13.9-19.6-13.9c-2.1,0-4.1,0.3-6.1,0.9V67.5c0-11.5-9.4-20.8-20.8-20.8C97.4,46.6,88,56,88,67.5v62.7 c-0.3-0.5-0.6-1.1-0.9-1.6c-4.2-7.8-10.1-10.6-14.4-11.6c-11.6-2.7-22.9,5-24.1,5.9c-2.7,1.9-3.8,5.5-2.6,8.6L67.4,189 c0.2,0.6,0.5,1.1,0.9,1.6l36.1,52.2c1.4,2,3.6,3.2,6.1,3.2h71.1c3.1,0,5.9-1.9,6.9-4.9l21.6-59.5c0.3-0.8,0.4-1.7,0.4-2.5v-39.6 C210.5,128.1,201.1,118.7,189.6,118.7L189.6,118.7z M195.7,177.8l-19.4,53.4h-62.1L80.9,183l-18.8-50.7c2.3-0.9,5-1.5,7.3-1 c1.2,0.3,3,1,4.7,4.2c4.9,9.1,10.6,15.6,13.9,18.9v11.3c0,4.1,3.3,7.4,7.4,7.4s7.4-3.3,7.4-7.4V67.5c0-3.4,2.7-6.1,6.1-6.1 s6.1,2.7,6.1,6.1v58c0,4.1,3.3,7.4,7.4,7.4c4.1,0,7.4-3.3,7.4-7.4v-12.3c0-3.4,2.7-6.1,6.1-6.1c3.4,0,6.1,2.7,6.1,6.1l0,12.4 c0,0,0,0.1,0,0.1V138c0,4.1,3.3,7.4,7.4,7.4c4.1,0,7.4-3.3,7.4-7.4v-12.3c0-3.3,2.7-6.1,6.1-6.1s6.1,2.7,6.1,6.1v26.3 c0,4.1,3.3,7.4,7.4,7.4s7.4-3.3,7.4-7.4v-12.3c0-3.4,2.7-6.1,6.1-6.1s6.1,2.7,6.1,6.1V177.8L195.7,177.8z"/> <path fill="#000000" d="M80.6,74.8c-3.1-5.1-4.7-11-4.7-17c0-18.2,14.8-33,33-33c18.2,0,33,14.8,33,33c0,5.5-1.4,10.9-4,15.7l13,7 c3.8-6.9,5.7-14.8,5.7-22.7c0-26.3-21.4-47.8-47.8-47.8c-26.3,0-47.8,21.4-47.8,47.8c0,8.7,2.4,17.2,6.8,24.6L80.6,74.8z"/></g>
</svg>