<?xml version="1.0" encoding="utf-8"?>
<!-- Svg Vector Icons : http://www.onlinewebfonts.com/icon -->
<!DOCTYPE svg PUBLIC "-//W3C//DTD SVG 1.1//EN" "http://www.w3.org/Graphics/SVG/1.1/DTD/svg11.dtd">
<svg version="1.1" xmlns="http://www.w3.org/2000/svg" xmlns:xlink="http://www.w3.org/1999/xlink" x="0px" y="0px" viewBox="0 0 256 256" enable-background="new 0 0 256 256" xml:space="preserve">
<metadata> Svg Vector Icons : http://www.onlinewebfonts.com/icon </metadata>
<g><g><path fill="#000000" d="M201.3,125.9c-5.9,0-11.1,2.9-14.2,7.4c-0.5-9.1-8.1-16.4-17.3-16.4c-6.1,0-11.6,3.2-14.6,8c0-0.3-0.1-0.6-0.2-0.9c11.2-12.1,18.1-28.3,18.1-46c0-37.5-30.4-67.9-67.9-67.9S37.4,40.4,37.4,77.9c0,31.9,22.2,58.7,51.9,65.9v34.5l-11.1-11.1c-3.3-3.3-7.6-5.1-12.3-5.1s-9,1.8-12.3,5.1c-3.3,3.3-5.1,7.6-5.1,12.3c0,4.6,1.8,9,5.1,12.3l43.8,43.8c0.2,0.2,0.5,0.4,0.8,0.7c6.1,6.3,14.3,9.8,23,9.8h65.3c17.7,0,32-14.4,32-32v-70.8C218.6,133.6,210.9,125.9,201.3,125.9z M45.1,77.9c0-33.2,27-60.1,60.1-60.1s60.1,27,60.1,60.1c0,14.7-5.3,28.1-14.1,38.6c-3.2-3.7-7.9-6.1-13.2-6.1c-0.2,0-0.4,0-0.6,0c8.4-8.3,13.6-19.8,13.6-32.5c0-25.3-20.5-45.8-45.8-45.8S59.4,52.6,59.4,77.9c0,19.7,12.4,36.4,29.8,42.9v15C63.8,128.8,45.1,105.5,45.1,77.9z M89.2,73.6v38.8c-13-6-22.1-19.2-22.1-34.5c0-21,17.1-38.1,38.1-38.1c21,0,38.1,17.1,38.1,38.1c0,14.2-7.8,26.6-19.4,33.1V73.6c0-9.6-7.8-17.3-17.3-17.3C97,56.2,89.2,64,89.2,73.6z M209.3,214c0,12.5-10.2,22.8-22.8,22.8h-65.3c-6.3,0-12.2-2.5-16.5-7.1c-0.1-0.1-0.2-0.2-0.3-0.3c-0.2-0.2-0.4-0.3-0.5-0.4l-43.8-43.8c-1.5-1.5-2.4-3.5-2.4-5.7c0-2.2,0.8-4.2,2.4-5.7s3.5-2.4,5.7-2.4c2.2,0,4.2,0.8,5.7,2.4l19,19c1.3,1.3,3.3,1.7,5.1,1c1.7-0.7,2.9-2.4,2.9-4.3V73.6c0-4.5,3.6-8.1,8.1-8.1c4.5,0,8.1,3.6,8.1,8.1v93.3c0,1.3,0.5,2.5,1.5,3.4c0.9,0.9,2.2,1.3,3.5,1.2c0.6,0,1.1-0.1,1.7-0.1h4c2.6,0,4.6-2.1,4.6-4.6v-39.1c0-4.5,3.6-8.1,8.1-8.1c4.4,0,8.1,3.6,8.1,8.1v39.1c0,2.6,2.1,4.6,4.6,4.6h6.4c2.6,0,4.6-2.1,4.6-4.6v-32.6c0-4.5,3.6-8.1,8.1-8.1s8.1,3.6,8.1,8.1v32.6c0,2.6,2.1,4.6,4.6,4.6h4.1c0.6,0,1.1,0,1.7,0.1c1.3,0.1,2.6-0.4,3.5-1.2c0.9-0.9,1.5-2.1,1.5-3.4v-23.6c0-4.5,3.6-8.1,8.1-8.1s8.1,3.6,8.1,8.1L209.3,214L209.3,214z"/></g></g>
</svg>