<?xml version="1.0" encoding="utf-8"?>
<!-- Svg Vector Icons : http://www.onlinewebfonts.com/icon -->
<!DOCTYPE svg PUBLIC "-//W3C//DTD SVG 1.1//EN" "http://www.w3.org/Graphics/SVG/1.1/DTD/svg11.dtd">
<svg version="1.1" xmlns="http://www.w3.org/2000/svg" xmlns:xlink="http://www.w3.org/1999/xlink" x="0px" y="0px" viewBox="0 0 256 256" enable-background="new 0 0 256 256" xml:space="preserve">
<metadata> Svg Vector Icons : http://www.onlinewebfonts.com/icon </metadata>
<g> <path fill="#000000" d="M128.8,10c-50.6,0-89.4,40.5-91.1,91.1c0,37.1,50.6,106.3,75.9,138.3c6.7,8.4,20.2,8.4,27,1.7l1.7-1.7 c25.3-33.7,75.9-101.2,75.9-138.3C218.3,50.5,179.5,10,128.8,10z M128.8,160.2c-32.1,0-59-27-59-59c0-32.1,27-59,59-59 c32.1,0,59,27,59,59C187.9,133.2,160.9,160.2,128.8,160.2z M137.3,69h-16.9v50.6H171v-16.9h-33.7V69z"/></g>
</svg>