<?xml version="1.0" encoding="utf-8"?>
<!-- Svg Vector Icons : http://www.onlinewebfonts.com/icon -->
<!DOCTYPE svg PUBLIC "-//W3C//DTD SVG 1.1//EN" "http://www.w3.org/Graphics/SVG/1.1/DTD/svg11.dtd">
<svg version="1.1" xmlns="http://www.w3.org/2000/svg" xmlns:xlink="http://www.w3.org/1999/xlink" x="0px" y="0px" viewBox="0 0 256 256" enable-background="new 0 0 256 256" xml:space="preserve">
<metadata> Svg Vector Icons : http://www.onlinewebfonts.com/icon </metadata>
<g><g><path fill="#000000" d="M54.4,194.4h77v-8.8h-77V194.4z M143.3,141.2H54.4v8.6h88.9V141.2L143.3,141.2z M175.7,99.7H54.3v8.8h121.5V99.7z M214.1,244.9H18.7V19.5h47.4v11.8c0,4.9,4.1,8.9,9.2,8.9h82.3c5.1,0,9.2-4,9.2-8.9V19.5h47.3v80.2h9V11.1h-56.3V2.3H66.1v8.8H10v242.7h213.2v-80h-9L214.1,244.9L214.1,244.9z M162.3,191.8l23-10.5l60.7-60.7L233.4,108l-60.7,60.8L162.3,191.8z"/></g></g>
</svg>